<svg width="24" height="24" viewBox="0 0 24 24" fill="none" xmlns="http://www.w3.org/2000/svg">
<g clip-path="url(#clip0_1_89)">
<path fill-rule="evenodd" clip-rule="evenodd" d="M20.0306 6.21938L16.2806 2.46937C16.1399 2.32876 15.949 2.24984 15.75 2.25H8.25C7.42157 2.25 6.75 2.92157 6.75 3.75V5.25H5.25C4.42157 5.25 3.75 5.92157 3.75 6.75V20.25C3.75 21.0784 4.42157 21.75 5.25 21.75H15.75C16.5784 21.75 17.25 21.0784 17.25 20.25V18.75H18.75C19.5784 18.75 20.25 18.0784 20.25 17.25V6.75C20.2502 6.55103 20.1712 6.36015 20.0306 6.21938ZM15.75 20.25H5.25V6.75H12.4397L15.75 10.0603V17.985C15.75 17.9906 15.75 17.9953 15.75 18C15.75 18.0047 15.75 18.0094 15.75 18.015V20.25ZM18.75 17.25H17.25V9.75C17.2502 9.55103 17.1712 9.36015 17.0306 9.21937L13.2806 5.46938C13.1399 5.32876 12.949 5.24984 12.75 5.25H8.25V3.75H15.4397L18.75 7.06031V17.25ZM13.5 14.25C13.5 14.6642 13.1642 15 12.75 15H8.25C7.83579 15 7.5 14.6642 7.5 14.25C7.5 13.8358 7.83579 13.5 8.25 13.5H12.75C13.1642 13.5 13.5 13.8358 13.5 14.25ZM13.5 17.25C13.5 17.6642 13.1642 18 12.75 18H8.25C7.83579 18 7.5 17.6642 7.5 17.25C7.5 16.8358 7.83579 16.5 8.25 16.5H12.75C13.1642 16.5 13.5 16.8358 13.5 17.25Z" fill="#4F7396"/>
</g>
<defs>
<clipPath id="clip0_1_89">
<rect width="24" height="24" fill="white"/>
</clipPath>
</defs>
</svg>
