<svg width="24" height="32" viewBox="0 0 24 32" fill="none" xmlns="http://www.w3.org/2000/svg">
<g clip-path="url(#clip0_16_99)">
<path fill-rule="evenodd" clip-rule="evenodd" d="M20.25 7.75H3.75C2.92157 7.75 2.25 8.42157 2.25 9.25V22.75C2.25 23.5784 2.92157 24.25 3.75 24.25H20.25C21.0784 24.25 21.75 23.5784 21.75 22.75V9.25C21.75 8.42157 21.0784 7.75 20.25 7.75ZM18.75 20.5C19.1642 20.5 19.5 20.8358 19.5 21.25C19.5 21.6642 19.1642 22 18.75 22H5.25C4.83579 22 4.5 21.6642 4.5 21.25V10.75C4.5 10.3358 4.83579 10 5.25 10C5.66421 10 6 10.3358 6 10.75V16.6488L9.27 13.9234C9.5252 13.7108 9.88988 13.6913 10.1663 13.8756L14.1975 16.5653L18.2672 13.1734C18.5856 12.9083 19.0587 12.9516 19.3237 13.27C19.5888 13.5884 19.5456 14.0615 19.2272 14.3266L14.7272 18.0766C14.472 18.2892 14.1073 18.3087 13.8309 18.1244L9.79969 15.4347L6 18.6016V20.5H18.75Z" fill="#4F7396"/>
</g>
<defs>
<clipPath id="clip0_16_99">
<rect width="24" height="24" fill="white" transform="translate(0 4)"/>
</clipPath>
</defs>
</svg>
